<svg xmlns="http://www.w3.org/2000/svg" viewBox="0 0 512 512" role="img" aria-label="The Metabolic Journal">
  <circle cx="256" cy="256" r="238" fill="#ffffff"/>
  <circle cx="256" cy="256" r="226" fill="none" stroke="#d9dde3" stroke-width="18"/>
  <g fill="none" stroke="#1264b0" stroke-width="30" stroke-linejoin="round">
    <path d="M118 112h86c53 0 96 43 96 96v22h-86c-53 0-96-43-96-96z"/>
    <path d="M394 112h-86c-53 0-96 43-96 96v22h86c53 0 96-43 96-96z"/>
    <path d="M118 400h86c53 0 96-43 96-96v-22h-86c-53 0-96 43-96 96z"/>
    <path d="M394 400h-86c-53 0-96-43-96-96v-22h86c53 0 96 43 96 96z"/>
  </g>
  <g fill="none" stroke="#0b4f9c" stroke-width="16" stroke-linecap="round">
    <path d="M167 160h38c27 0 49 22 49 49"/>
    <path d="M345 160h-38c-27 0-49 22-49 49"/>
    <path d="M167 352h38c27 0 49-22 49-49"/>
    <path d="M345 352h-38c-27 0-49-22-49-49"/>
  </g>
</svg>
